/* XPM */
static char *d5b767e8ad574efdecd9b0964f0e16c4NMaYYkD9Mj5oarEF[] = {
/* columns rows colors chars-per-pixel */
"80 40 65 1 ",
"  c white",
". c #B9B9B9",
"X c gray58",
"o c gray67",
"O c gray69",
"+ c #868686",
"@ c #848484",
"# c #AEAEAE",
"$ c gray64",
"% c #7C7C7C",
"& c #8E8E8E",
"* c gray70",
"= c #040404",
"- c #565656",
"; c #151515",
": c #1E1E1E",
"> c #0B0B0B",
", c #090909",
"< c #989898",
"1 c #B4B4B4",
"2 c #434343",
"3 c #010101",
"4 c gray13",
"5 c gray5",
"6 c gray6",
"7 c #898989",
"8 c #111111",
"9 c #9B9B9B",
"0 c #B2B2B2",
"q c #414141",
"w c gray40",
"e c #060606",
"r c gray55",
"t c gray23",
"y c #101010",
"u c gray35",
"i c #585858",
"p c gray10",
"a c gray11",
"s c gray26",
"d c #9F9F9F",
"f c black",
"g c #767676",
"h c gray45",
"j c #646464",
"k c gray8",
"l c gray72",
"z c #686868",
"x c #0C0C0C",
"c c #5B5B5B",
"v c #5D5D5D",
"b c gray15",
"n c gray21",
"m c #939393",
"M c #818181",
"N c #797979",
"B c #AFAFAF",
"V c #8B8B8B",
"C c gray71",
"Z c #191919",
"A c #020202",
"S c #464646",
"D c #A5A5A5",
"F c #9D9D9D",
"G c gray68",
/* pixels */
"                                                                                ",
"                                                                                ",
"  ............................................................................  ",
"  ............................................................................  ",
"  ............................................................................  ",
"  ............................................................................  ",
"  ............................................................................  ",
"  ............................................................................  ",
"  ............................................................................  ",
"  ............................................................................  ",
"  ............................................................................  ",
"  ............................................................................  ",
"  ............................................................................  ",
"  ..............................XoO+@#.....$%&*...............................  ",
"  ..............................=-;:>,<..1234567..............................  ",
"  ..............................=89.0:q..wer.*tyO.............................  ",
"  ..............................=u...ip..as...dfg.............................  ",
"  ..............................=h...jk.l3z....xc.............................  ",
"  ..............................=h...jk..=j....,v.............................  ",
"  ..............................=h...jk..bn...mfM.............................  ",
"  ..............................=h...jk..N3uBV4:C.............................  ",
"  ..............................=h...jk..lNZ=ASD..............................  ",
"  .........................................lFG................................  ",
"  ............................................................................  ",
"  ............................................................................  ",
"  ............................................................................  ",
"  ............................................................................  ",
"  ............................................................................  ",
"  ............................................................................  ",
"  ............................................................................  ",
"  ............................................................................  ",
"  ............................................................................  ",
"  ............................................................................  ",
"  ............................................................................  ",
"  ............................................................................  ",
"  ............................................................................  ",
"  ............................................................................  ",
"  ............................................................................  ",
"                                                                                ",
"                                                                                "
};
