/* XPM */
static char *_5132ea6dcbd4a5b8224aea5f3d34efdxNFjKy1rJuoLHy42[] = {
/* columns rows colors chars-per-pixel */
"80 40 57 1 ",
"  c white",
". c #7B7B7B",
"X c #626262",
"o c #727272",
"O c gray46",
"+ c gray35",
"@ c #585858",
"# c #747474",
"$ c #6D6D6D",
"% c gray32",
"& c #5F5F5F",
"* c #777777",
"= c #020202",
"- c #393939",
"; c #0E0E0E",
": c gray8",
"> c #070707",
", c #060606",
"< c #656565",
"1 c gray47",
"2 c #2C2C2C",
"3 c #010101",
"4 c #161616",
"5 c #090909",
"6 c gray4",
"7 c #5B5B5B",
"8 c #0B0B0B",
"9 c #676767",
"0 c #767676",
"q c gray17",
"w c #444444",
"e c #040404",
"r c #5D5D5D",
"t c #272727",
"y c gray23",
"u c #3A3A3A",
"i c #111111",
"p c #131313",
"a c #6A6A6A",
"s c black",
"d c gray31",
"f c gray30",
"g c #434343",
"h c gray27",
"j c gray3",
"k c #3C3C3C",
"l c #3E3E3E",
"z c gray10",
"x c gray14",
"c c gray38",
"v c #565656",
"b c #515151",
"n c #797979",
"m c gray18",
"M c gray48",
"N c DimGray",
"B c gray45",
/* pixels */
"                                                                                ",
"                                                                                ",
"  ............................................................................  ",
"  ............................................................................  ",
"  ............................................................................  ",
"  ............................................................................  ",
"  ............................................................................  ",
"  ............................................................................  ",
"  ............................................................................  ",
"  ............................................................................  ",
"  ............................................................................  ",
"  ............................................................................  ",
"  ............................................................................  ",
"  ..............................XoO+@#.....$%&*...............................  ",
"  ..............................=-;:>,<..1234567..............................  ",
"  ..............................=89.0:q..wer.*t8O.............................  ",
"  ..............................=y...ui..p2...asd.............................  ",
"  ..............................=f...g;..sh....jk.............................  ",
"  ..............................=f...g;..=g....,l.............................  ",
"  ..............................=f...g;..zx...csv.............................  ",
"  ..............................=f...g;..b3y#r4:n.............................  ",
"  ..............................=f...g;...bi=3m$..............................  ",
"  .........................................MNB................................  ",
"  ............................................................................  ",
"  ............................................................................  ",
"  ............................................................................  ",
"  ............................................................................  ",
"  ............................................................................  ",
"  ............................................................................  ",
"  ............................................................................  ",
"  ............................................................................  ",
"  ............................................................................  ",
"  ............................................................................  ",
"  ............................................................................  ",
"  ............................................................................  ",
"  ............................................................................  ",
"  ............................................................................  ",
"  ............................................................................  ",
"                                                                                ",
"                                                                                "
};
