/* XPM */
static char *bf32c870795c4078cfe8504454bd2c9cBqFqZhRGKJXPuYft[] = {
/* columns rows colors chars-per-pixel */
"80 40 93 2 ",
"   c white",
".  c #B9B9B9",
"X  c gray66",
"o  c #959595",
"O  c gray58",
"+  c #A9A9A9",
"@  c gray64",
"#  c #7C7C7C",
"$  c #8E8E8E",
"%  c gray70",
"&  c gray52",
"*  c #747474",
"=  c #AFAFAF",
"-  c #909090",
";  c black",
":  c #8D8D8D",
">  c gray59",
",  c gray68",
"<  c #3A3A3A",
"1  c #040404",
"2  c gray14",
"3  c #111111",
"4  c #727272",
"5  c #010101",
"6  c gray9",
"7  c #2C2C2C",
"8  c #161616",
"9  c #282828",
"0  c #232323",
"q  c #4B4B4B",
"w  c #434343",
"e  c #464646",
"r  c #1D1D1D",
"t  c gray72",
"y  c #494949",
"u  c #1B1B1B",
"i  c #B6B6B6",
"p  c #505050",
"a  c #A0A0A0",
"s  c gray43",
"d  c #090909",
"f  c gray69",
"g  c #ACACAC",
"h  c #060606",
"j  c gray67",
"k  c gray1",
"l  c #767676",
"z  c gray27",
"x  c #B4B4B4",
"c  c gray4",
"v  c gray44",
"b  c #686868",
"n  c #0B0B0B",
"m  c #B1B1B1",
"M  c #191919",
"N  c #202020",
"B  c gray12",
"V  c gray47",
"C  c gray46",
"Z  c #070707",
"A  c #373737",
"S  c #B2B2B2",
"D  c #4E4E4E",
"F  c gray15",
"G  c #1E1E1E",
"H  c gray56",
"J  c #AAAAAA",
"K  c #797979",
"L  c #3F3F3F",
"P  c #252525",
"I  c gray60",
"U  c DimGray",
"Y  c #989898",
"T  c #5F5F5F",
"R  c #808080",
"E  c #2D2D2D",
"W  c gray16",
"Q  c gray36",
"!  c gray40",
"~  c #606060",
"^  c gray71",
"/  c gray38",
"(  c #565656",
")  c #B7B7B7",
"_  c #020202",
"`  c gray18",
"'  c gray8",
"]  c #7B7B7B",
"[  c #676767",
"{  c #0C0C0C",
"}  c #9B9B9B",
"|  c gray7",
" . c #2A2A2A",
/* pixels */
"                                                                                                                                                                ",
"                                                                                                                                                                ",
"    . . . . . . . . . . . . . . . . . . . . . . . . . . . . . . . . . . . . . . . . . . . . . . . . . . . . . . . . . . . . . . . . . . . . . . . . . . . .     ",
"    . . . . . . . . . . . . . . . . . . . . . . . . . . . . . . . . . . . . . . . . . . . . . . . . . . . . . . . . . . . . . . . . . . . . . . . . . . . .     ",
"    . . . . . . . . . . . . . . . . . . . . . . . . . . . . . . . . . . . . . . . . . . . . . . . . . . . . . . . . . . . . . . . . . . . . . . . . . . . .     ",
"    . . . . . . . . . . . . . . . . . . . . . . . . . . . . . . . . . . . . . . . . . . . . . . . . . . . . . . . . . . . . . . . . . . . . . . . . . . . .     ",
"    . . . . . . . . . . . . . . . . . . . . . . . . . . . . . . . . . . . . . . . . . . . . . . . . . . . . . . . . . . . . . . . . . . . . . . . . . . . .     ",
"    . . . . . . . . . . . . . . . . . . . . . . . . . . . . . . . . . . . . . . . . . . . . . . . . . . . . . . . . . . . . . . . . . . . . . . . . . . . .     ",
"    . . . . . . . . . . . . . . . . . . . . . . . . . . . . . . . . . . . . . . . . . . . . . . . . . . . . . . . . . . . . . . . . . . . . . . . . . . . .     ",
"    . . . . . . . . . . . . . . . . . . . . . . . . . . . . . . . . . . . . . . . . . . . . . . . . . . . . . . . . . . . . . . . . . . . . . . . . . . . .     ",
"    . . . . . . . . . . . . . . . . . . . . . . . . . . . . . . . . . . . . . . . . . . . . . . . . . . . . . . . . . . . . . . . . . . . . . . . . . . . .     ",
"    . . . . . . . . . . . . . . . . . . . . . . . . . . . . . . . . . . . . . . . . . . . . . . . . . . . . . . . . . . . . . . . . . . . . . . . . . . . .     ",
"    . . . . . . . . . . . . . . . . . . . . . . . . . . . . . . . . . . . . . . . . . . . . . . . . . . . . . . . . . . . . . . . . . . . . . . . . . . . .     ",
"    . . . . . . . . . . . . . . . . . . . . . . . . . X o . . . . . O + . . . @ # $ % . . . . X & * & = . . . . . . . . . . . . . . . . . . . . . . . . . .     ",
"    . . . . . . . . . . . . . . . . . . . . . . . . . - ; o . . . : ; > . , < 1 2 3 3 - . . 4 5 6 7 8 9 . . . . . . . . . . . . . . . . . . . . . . . . . .     ",
"    . . . . . . . . . . . . . . . . . . . . . . . . . . 0 q . . . w 9 . . e r X . t y u i . 8 p . . . a . . . . . . . . . . . . . . . . . . . . . . . . . .     ",
"    . . . . . . . . . . . . . . . . . . . . . . . . . . s d f . g h 4 . j k l . . . @ ; : . 8 z x . . . . . . . . . . . . . . . . . . . . . . . . . . . . .     ",
"    . . . . . . . . . . . . . . . . . . . . . . . . . . f c v . b n m . : ; M N B B B ; V . C Z c A V S . . . . . . . . . . . . . . . . . . . . . . . . . .     ",
"    . . . . . . . . . . . . . . . . . . . . . . . . . . . D F . G D . . H ; * - - - - - J . . , K L Z P i . . . . . . . . . . . . . . . . . . . . . . . . .     ",
"    . . . . . . . . . . . . . . . . . . . . . . . . . . . I ; U ; Y . . = Z T . . . . . . . . . . . R ; o . . . . . . . . . . . . . . . . . . . . . . . . .     ",
"    . . . . . . . . . . . . . . . . . . . . . . . . . . . . E 1 W . . . . Q d ! J t a ~ ^ x / @ t ^ ( Z g . . . . . . . . . . . . . . . . . . . . . . . . .     ",
"    . . . . . . . . . . . . . . . . . . . . . . . . . . . . V ; * . . . . ) l G _ 1 _ ` ^ % G ; Z 1 ' ] . . . . . . . . . . . . . . . . . . . . . . . . . .     ",
"    . . . . . . . . . . . . . . . . . . . . . . . . . . . . [ { S . . . . . . t @ } f . . . . j Y @ t . . . . . . . . . . . . . . . . . . . . . . . . . . .     ",
"    . . . . . . . . . . . . . . . . . . . . . . . . . . t } | ( . . . . . . . . . . . . . . . . . . . . . . . . . . . . . . . . . . . . . . . . . . . . . .     ",
"    . . . . . . . . . . . . . . . . . . . . . . . . . .  .; 7 f . . . . . . . . . . . . . . . . . . . . . . . . . . . . . . . . . . . . . . . . . . . . . .     ",
"    . . . . . . . . . . . . . . . . . . . . . . . . . . X J . . . . . . . . . . . . . . . . . . . . . . . . . . . . . . . . . . . . . . . . . . . . . . . .     ",
"    . . . . . . . . . . . . . . . . . . . . . . . . . . . . . . . . . . . . . . . . . . . . . . . . . . . . . . . . . . . . . . . . . . . . . . . . . . . .     ",
"    . . . . . . . . . . . . . . . . . . . . . . . . . . . . . . . . . . . . . . . . . . . . . . . . . . . . . . . . . . . . . . . . . . . . . . . . . . . .     ",
"    . . . . . . . . . . . . . . . . . . . . . . . . . . . . . . . . . . . . . . . . . . . . . . . . . . . . . . . . . . . . . . . . . . . . . . . . . . . .     ",
"    . . . . . . . . . . . . . . . . . . . . . . . . . . . . . . . . . . . . . . . . . . . . . . . . . . . . . . . . . . . . . . . . . . . . . . . . . . . .     ",
"    . . . . . . . . . . . . . . . . . . . . . . . . . . . . . . . . . . . . . . . . . . . . . . . . . . . . . . . . . . . . . . . . . . . . . . . . . . . .     ",
"    . . . . . . . . . . . . . . . . . . . . . . . . . . . . . . . . . . . . . . . . . . . . . . . . . . . . . . . . . . . . . . . . . . . . . . . . . . . .     ",
"    . . . . . . . . . . . . . . . . . . . . . . . . . . . . . . . . . . . . . . . . . . . . . . . . . . . . . . . . . . . . . . . . . . . . . . . . . . . .     ",
"    . . . . . . . . . . . . . . . . . . . . . . . . . . . . . . . . . . . . . . . . . . . . . . . . . . . . . . . . . . . . . . . . . . . . . . . . . . . .     ",
"    . . . . . . . . . . . . . . . . . . . . . . . . . . . . . . . . . . . . . . . . . . . . . . . . . . . . . . . . . . . . . . . . . . . . . . . . . . . .     ",
"    . . . . . . . . . . . . . . . . . . . . . . . . . . . . . . . . . . . . . . . . . . . . . . . . . . . . . . . . . . . . . . . . . . . . . . . . . . . .     ",
"    . . . . . . . . . . . . . . . . . . . . . . . . . . . . . . . . . . . . . . . . . . . . . . . . . . . . . . . . . . . . . . . . . . . . . . . . . . . .     ",
"    . . . . . . . . . . . . . . . . . . . . . . . . . . . . . . . . . . . . . . . . . . . . . . . . . . . . . . . . . . . . . . . . . . . . . . . . . . . .     ",
"                                                                                                                                                                ",
"                                                                                                                                                                "
};
