/* XPM */
static char *b46d6c23755e4a5396883c2bededaf9449qpQMPsoPtAhrKs[] = {
/* columns rows colors chars-per-pixel */
"80 40 83 1 ",
"  c white",
". c #7B7B7B",
"X c #6F6F6F",
"o c gray39",
"O c #626262",
"+ c gray44",
"@ c #6C6C6C",
"# c gray32",
"$ c #5F5F5F",
"% c #777777",
"& c gray35",
"* c gray30",
"= c #747474",
"- c #606060",
"; c black",
": c gray37",
"> c #646464",
", c gray45",
"< c #272727",
"1 c gray1",
"2 c #181818",
"3 c #0B0B0B",
"4 c #4C4C4C",
"5 c gray6",
"6 c #1D1D1D",
"7 c #0E0E0E",
"8 c #1B1B1B",
"9 c gray9",
"0 c #323232",
"q c #2C2C2C",
"w c #2F2F2F",
"e c #131313",
"r c #313131",
"t c gray7",
"y c #797979",
"u c #353535",
"i c gray42",
"p c #494949",
"a c #060606",
"s c gray46",
"d c #727272",
"f c #040404",
"g c #020202",
"h c gray31",
"j c #6D6D6D",
"k c gray18",
"l c gray47",
"z c #070707",
"x c gray29",
"c c gray27",
"v c #767676",
"b c #111111",
"n c #151515",
"m c #505050",
"M c #4E4E4E",
"N c #252525",
"B c #343434",
"V c gray10",
"C c gray8",
"Z c #717171",
"A c #515151",
"S c #2A2A2A",
"D c gray2",
"F c #191919",
"G c gray40",
"H c #464646",
"J c #656565",
"K c #3F3F3F",
"L c #555555",
"P c #1E1E1E",
"I c gray24",
"U c #444444",
"Y c gray48",
"T c gray25",
"R c #414141",
"E c #393939",
"W c #010101",
"Q c gray12",
"! c gray5",
"~ c gray3",
"^ c #676767",
"/ c #0C0C0C",
"( c gray11",
/* pixels */
"                                                                                ",
"                                                                                ",
"  ............................................................................  ",
"  ............................................................................  ",
"  ............................................................................  ",
"  ............................................................................  ",
"  ............................................................................  ",
"  ............................................................................  ",
"  ............................................................................  ",
"  ............................................................................  ",
"  ............................................................................  ",
"  ............................................................................  ",
"  ............................................................................  ",
"  .........................Xo.....O+...@#$%....X&*&=..........................  ",
"  .........................-;o...:;>.,<1233-..4;5678..........................  ",
"  ..........................90...q8..we+..rty.7u...i..........................  ",
"  ..........................pas.df4.dgh...j;:.7kl.............................  ",
"  ..........................szx.czv.:;bnnnn;m.MfzNm%..........................  ",
"  ...........................BV.CB..$;*-----Z..,ASDFy.........................  ",
"  ...........................G;H;J..=DK...........L;o.........................  ",
"  ............................Pg8....IaUZYiTllR@.lEfd.........................  ",
"  ............................m;*....YMCW1WQy%C;fg!#..........................  ",
"  ............................U~%.......@^s....dJjY...........................  ",
"  ..........................Y^/E..............................................  ",
"  ..........................(;6s..............................................  ",
"  ..........................XZ................................................  ",
"  ............................................................................  ",
"  ............................................................................  ",
"  ............................................................................  ",
"  ............................................................................  ",
"  ............................................................................  ",
"  ............................................................................  ",
"  ............................................................................  ",
"  ............................................................................  ",
"  ............................................................................  ",
"  ............................................................................  ",
"  ............................................................................  ",
"  ............................................................................  ",
"                                                                                ",
"                                                                                "
};
